<svg width="38" height="38" viewBox="0 0 448 448" fill="none" xmlns="http://www.w3.org/2000/svg">
<path fill-rule="evenodd" clip-rule="evenodd" d="M206 0.592998C204.075 0.818998 198.9 1.484 194.5 2.07C105.935 13.86 31.987 78.111 8.44601 163.727C2.27001 186.186 0.64301 198.576 0.59501 223.5C0.54801 248.32 1.79701 258.572 7.58101 280.843C17.206 317.902 35.858 351.203 62.472 378.842C97.486 415.204 140.101 437.276 191.5 445.669C206.75 448.159 241.023 448.149 256.5 445.65C304.635 437.877 345.469 417.733 379.292 385.077C415.318 350.293 437.937 306.311 445.672 256C448.109 240.144 448.11 207.864 445.673 192C437.941 141.668 415.347 97.734 379.292 62.923C345.83 30.615 306.62 10.977 259.5 2.925C247.983 0.957999 215.084 -0.477002 206 0.592998ZM241.5 33.039C287.833 37.408 330.951 58.128 362.574 91.22C397.462 127.729 416 173.861 416 224.173C416 290.038 383.637 349.201 327.5 385.961C305.652 400.268 276.491 410.812 248.699 414.454C167.705 425.067 88.083 382.166 52.055 308.5C15.822 234.414 30.552 146.61 89.023 88.139C128.787 48.375 185.769 27.784 241.5 33.039ZM286 141.104C284.625 141.642 270.116 155.444 253.758 171.776L224.016 201.471L194.258 171.81C162.126 139.781 162.163 139.809 153.299 141.472C148.377 142.395 142.395 148.377 141.472 153.299C139.809 162.163 139.781 162.126 171.808 194.256L201.468 224.013L181.96 243.756C143.723 282.453 141.245 285.176 140.461 289.355C138.295 300.901 148.897 310.887 160.25 307.994C163.996 307.04 168.018 303.331 194.184 276.706L223.867 246.5L254.184 276.668C280.482 302.838 285.063 306.984 288.75 307.956C294.809 309.554 299.911 307.948 304.336 303.05C308.233 298.737 309.578 294.03 308.566 288.25C307.991 284.966 304.096 280.741 277.205 254.231L246.5 223.962L276.185 194.731C292.512 178.654 306.375 164.469 306.992 163.208C308.928 159.258 308.431 151.434 305.995 147.492C302.153 141.276 293.023 138.359 286 141.104Z" fill="white"/>
</svg>
